<svg xmlns="http://www.w3.org/2000/svg" xmlns:xlink="http://www.w3.org/1999/xlink" width="124" height="119" viewBox="0 0 124 119">
    <defs>
        <path id="a" d="M15.16 31.322H.625V.262H15.16v31.06z"/>
        <path id="c" d="M0 33.65V.48h69.095v33.17H0z"/>
    </defs>
    <g fill="none" fill-rule="evenodd">
        <path fill="#E95035" d="M93.778 80.294s10.038 22.462 25.891 18.825c0 0 1.388 1.227-.019 1.656 0 0-22.646 6.678-28.592-13.518l2.72-6.963z"/>
        <path fill="#DB3324" d="M82.739 32.316a2.39 2.39 0 0 0-.145-.435c-.86-1.96-3.57-.357-4.537.603-1.682 1.672-5.309 3.844-8.023 3.935-4.306.142-7.435-4.392-10.786-6.547-3.72-2.392-5.258-4.389-9.004-6.748-1.74-1.095-4.202-2.473-6.261-1.509-2.191 1.026-1.752 5.753-.392 7.245 2.009 2.206 4.794 3.485 7.29 5.037 2.783 1.732 5.778 3.078 8.692 4.567 2.64 1.35 3.353 1.248 6.046 2.487 4.976 2.291 10.786-1.15 14.007-5.392 1.105-1.455 3.598-1.148 3.113-3.243"/>
        <g transform="translate(78.905 87.37)">
            <mask id="b" fill="#fff">
                <use xlink:href="#a"/>
            </mask>
            <path fill="#DB3324" d="M14.333 15.435a19.649 19.649 0 0 1-.084-.657c-.5-4.452.098-8.865.411-13.303a.414.414 0 0 0-.27-.41C12.602.354 8-.678 7.306 2.006a.41.41 0 0 0 .154.44c.037 7.676 1.626 15.273 1.327 22.958-.879.36-1.844.56-2.748.833-1.26.38-2.533.787-3.706 1.397-.745.387-1.648.983-1.705 1.908-.055.875.76 1.463 1.516 1.646 1.116.27 2.342.08 3.45-.128 1.43-.268 2.83-.709 4.186-1.222 1.161-.438 2.332-.95 3.362-1.654 3.268-2.231 1.704-9.115 1.19-12.75" mask="url(#b)"/>
        </g>
        <path fill="#DB3324" d="M85.474 97.112c-.004-.232-.004-.45-.002-.654.044-4.446.887-8.815 1.525-13.219.027-.184-.043-.346-.162-.418-1.246-.77-4.53-1.965-5.287.68a.479.479 0 0 0 .072.443c-.679 7.638-.21 15.251-1.135 22.884-.679.329-1.407.492-2.096.73-.96.332-1.932.69-2.849 1.254-.584.359-1.3.92-1.429 1.836-.12.87.424 1.482.963 1.693.794.309 1.713.165 2.547-.001 1.074-.214 2.142-.603 3.185-1.064.894-.394 1.802-.861 2.622-1.523 2.605-2.1 2.09-9.004 2.046-12.641"/>
        <path fill="#E95035" d="M96.433 69.337c0 25.553-4.3 25.885-9.604 25.885-5.305 0-9.606-.332-9.606-25.885s4.3-46.267 9.606-46.267c5.304 0 9.604 20.714 9.604 46.267"/>
        <path fill="#EB675F" d="M83.665 61.603c-.22-3.98-.145-7.927.18-11.9.188-2.31.457-4.615.624-6.926.14-1.947-.234-3.953.168-5.874.176-.847-.133-1.531-.647-1.979-.691-.838-2.027-1.252-3.102-.345-.085.071-.163.153-.241.228-1.996 8.478-3.255 20.88-3.255 34.699 0 6.06.243 10.698.683 14.253.896.538 2.125.387 2.787-.682 3.956-6.394 3.2-14.308 2.803-21.474"/>
        <path fill="#E4D2CC" d="M120.864 43.42c-.259-.854-.979-1.4-1.852-1.232-10.007 1.933-19.91 4.369-29.964 6.062-9.215 1.553-18.264 5.061-27.643 5.468-.472.02-.837.222-1.094.511-.914-.356-2.072.052-2.016 1.327.204 4.655 1.798 8.974 2.918 13.45-.026.922.105 1.769.3 2.697a1.625 1.625 0 0 0 1.045 1.187c2.568.844 5.228.427 7.81-.035 3.846-.687 7.682-1.268 11.537-1.894 8.794-1.429 17.302-3.99 25.777-6.663 3.453-1.09 6.829-1.34 10.364-1.932 2.298-.386 4.225-1.507 4.876-3.883 1.257-4.587-.727-10.656-2.058-15.063"/>
        <path fill="#FEFEFE" d="M89.663 52.118c-4.364.865-8.43 1.975-12.884 2.406-4.207.409-8.31 1.328-12.231 2.908-1.84.742-.383 3.457 1.443 2.72 4.218-1.7 8.718-2.412 13.23-2.784 3.83-.316 7.361-1.502 11.11-2.246 1.95-.386 1.277-3.39-.668-3.004M90.247 56.875c-8.265 1.717-16.937 1.22-24.764 4.764-1.809.819-.36 3.535 1.443 2.72 7.517-3.404 16.043-2.83 23.989-4.48 1.947-.404 1.276-3.408-.668-3.004M86.27 61.698l-19.548 4.338c-1.938.431-1.27 3.435.668 3.005l19.548-4.339c1.939-.43 1.27-3.434-.667-3.004"/>
        <path fill="#C0B1AD" d="M119.66 45.357c-.227-.59-1.106-.968-1.695-.782-3.065.97-6.239 1.306-9.35 2.054-2.059.495-3.974 1.438-6.093 1.697-1.189.146-3.672-.33-3.202 1.806.825 3.76 1.584 7.51 2.998 11.103.6 1.524 2.642.627 3.81.537 1.105-.085 2.101-.117 3.205-.357 3.271-.707 10.058-1.19 11.651-4.828.605-1.381.19-3.844.068-5.276-.175-2.063-.652-4.025-1.392-5.954"/>
        <path fill="#DB3324" d="M73.85 67.005c-.256 1.237-.333 2.522-.35 3.778-.021 1.38.033 2.763.24 4.116.181 1.18.432 2.52 1.224 3.36.788.832 2.022.802 2.883-.028 1.07-1.026 1.578-2.24 1.998-3.708.478-1.663.815-3.365 1.178-5.055.309-1.441.625-3.152 1.108-4.363.893-2.237 1.81-4.417 2.905-6.55 1.081-2.108 2.23-4.174 3.293-6.292 2.058-4.103 2.772-8.511 2.439-13.083-.23-3.164-.684-5.346-2.469-7.685-.423-.554-1.307-.353-1.718.164-.497.625-.365 1.384.056 1.934.34.448.615.96.84 1.51 1.24 5.544-2.61 10.604-5.596 14.835-1.162 1.648-2.323 3.325-3.267 5.14-.942 1.81-1.698 3.773-2.524 5.651-.883 2.01-1.786 4.1-2.24 6.276"/>
        <path fill="#231815" d="M78.08 75.747c.305-.237.6.115.532.424a.463.463 0 0 1-.004.332c-.382 1-.074 2.107-.712 3.02-.168.24-.538.16-.602-.12-.26-1.114-.177-2.904.787-3.656M76.274 75.983c.14-.294.442-.266.59-.088.17.04.311.201.265.451-.107.583-.195 1.169-.324 1.748-.112.504-.285 1.528-.807 1.738-.696.284-.824-.7-.74-1.238.147-.914.626-1.795 1.016-2.61M73.723 78.593c.038.263.22.422.465.34 1.087-.367 1.303-2.346 1.503-3.37.062-.307-.164-.48-.377-.457-.118-.179-.388-.205-.564-.021-.813.847-1.203 2.331-1.027 3.508M77.074 10.798c-.73 3.247-3.122 5.473-5.343 4.974-2.22-.498-3.429-3.536-2.698-6.78.73-3.246 3.123-5.472 5.344-4.974 2.22.5 3.427 3.535 2.697 6.78"/>
        <path fill="#E95035" d="M102.102 13.467c-.795-1.101-1.259-7.315-1.259-7.315-6.099-8.13-13.374-4.981-13.83-4.894-.45-.113-7.54-3.658-14.08 4.121 0 0-.807 6.178-1.662 7.234 0 0-.273 12.018 14.675 12.799v.008c.133.005.265.008.397.009.13.005.263.01.397.013v-.009c14.967.048 15.362-11.966 15.362-11.966"/>
        <path fill="#DB3324" d="M99.839 14.606c-1.809-.216-3.889-.43-4.323-1.76-.33-1.003-.209-2.906.138-3.88.227-.639 1.849-1.897 1.245-2.525-.318-.33-1.093-1.606-1.594-1.664-2.15-.254-3.768-.139-5.676.77-.835.4-3.163 1.898-3.372 2.72 0 0-1.09 3.803-1.66 3.93l2.105-.245-2.9.318c-.56-.158-.67-3.669-.67-3.669-.622-3.156-6.357-3.944-6.357-3.944-1.43.232-2.625.986-2.153 1.809.187.323.583.565.87.855.367.37.38.651.258 1.047-.071.235-.419.616-.614.821-.747.791-2.08 2.04-3.191 1.463-.294 1.49-.299 1.536-.676 2.002 0 0-.271 12.018 14.677 12.797v.01l.396.01c.13.003.263.009.397.011l-.001-.01c12.557.042 14.858-8.405 15.273-11.128-.632.27-1.432.351-2.172.262"/>
        <path fill="#EB675F" d="M94.698 18.379c-.104 3.735-4.168 6.655-9.078 6.52-4.91-.137-8.805-3.277-8.702-7.014.104-3.736 4.168-6.655 9.078-6.52 4.91.137 8.806 3.276 8.702 7.014"/>
        <path fill="#231815" d="M85.55 15.326c.271 1.026-.653 2.159-2.063 2.53-1.41.372-2.772-.159-3.042-1.185-.273-1.028.651-2.16 2.062-2.531 1.41-.373 2.771.158 3.042 1.186M82.341 12.542s.78-4.816-3.785-7.243c0 0-4.998-1.727-4.2 4.095 0 0 .866 2.353-.459 3.451 0 0-1.162 1.917 4.067 2.324 0 0 3.801-.424 4.377-2.627"/>
        <path fill="#FEFEFE" d="M80.516 12.868c-.123.14-.266.276-.429.41-1.13.917-2.899.707-3.74-.165-.847-.876-.946-2.477-.077-3.581 2.317-2.949 6.526.75 4.246 3.336"/>
        <path fill="#231815" d="M85.756 11.562s1.022-5.221 6.61-5.984c0 0 5.77.117 2.752 5.776 0 0-1.776 2.081-.835 3.704 0 0 .463 2.402-5.04.846 0 0-3.73-1.869-3.487-4.342"/>
        <path fill="#FEFEFE" d="M87.251 12.609c.073.19.167.384.284.582.81 1.366 2.7 1.818 3.893 1.242 1.195-.577 1.902-2.177 1.43-3.636-1.257-3.891-6.962-1.695-5.607 1.812"/>
        <path fill="#231815" d="M77.298 10.256c-1.57.155-1.332 2.588.239 2.434 1.57-.153 1.331-2.587-.24-2.434M88.678 10.701c-1.57.154-1.33 2.587.24 2.433 1.57-.154 1.33-2.588-.24-2.433M97.988 13.034c1.187 3.519 4.13 5.728 6.572 4.935 2.442-.794 4.391-4.757 2.272-7.807-2.094-3.016-3.822-3.81-6.387-3.933-2.582-.123-3.645 3.286-2.457 6.805M87.966 16.955c-.22 2.45-4.036 4.277-6.028 2.64-.743-.61-1.606.61-.872 1.213 2.874 2.361 8.104-.272 8.416-3.735.085-.945-1.43-1.06-1.516-.118"/>
        <g transform="translate(.874 5.237)">
            <mask id="d" fill="#fff">
                <use xlink:href="#c"/>
            </mask>
            <path fill="#E4D2CC" d="M66.482 1.822C66.207.914 65.442.334 64.514.513c-10.632 2.053-21.155 4.64-31.837 6.44-9.79 1.65-19.405 5.377-29.371 5.81-.501.022-.888.237-1.162.544-.97-.38-2.202.054-2.142 1.409.218 4.946 1.911 9.535 3.1 14.292-.027.978.113 1.878.32 2.865.122.58.565 1.081 1.11 1.26 2.73.897 5.555.455 8.298-.035 4.085-.732 8.161-1.349 12.259-2.014 9.342-1.518 18.382-4.239 27.387-7.08 3.67-1.157 7.256-1.422 11.012-2.053 2.442-.41 4.489-1.6 5.181-4.125 1.335-4.875-.772-11.321-2.187-16.004" mask="url(#d)"/>
        </g>
        <path fill="#FEFEFE" d="M34.204 16.3c-4.636.919-8.956 2.099-13.688 2.557-4.47.434-8.83 1.41-12.996 3.09-1.954.787-.407 3.672 1.533 2.89 4.482-1.807 9.263-2.564 14.056-2.959 4.07-.336 7.822-1.596 11.806-2.386 2.07-.41 1.356-3.603-.71-3.193M34.825 21.354c-8.781 1.824-17.995 1.297-26.312 5.061-1.922.87-.381 3.758 1.535 2.89 7.985-3.616 17.043-3.005 25.487-4.76 2.068-.429 1.355-3.62-.71-3.191M30.6 26.479l-20.77 4.61c-2.06.456-1.35 3.648.71 3.191l20.77-4.61c2.06-.456 1.35-3.648-.71-3.191"/>
        <path fill="#C0B1AD" d="M66.076 9.117c-.24-.628-1.174-1.03-1.8-.83-3.257 1.03-6.63 1.386-9.934 2.18-2.188.527-4.222 1.528-6.474 1.803-1.264.156-3.902-.35-3.404 1.92.877 3.994 1.683 7.98 3.187 11.797.637 1.618 2.807.666 4.047.57 1.175-.091 2.234-.124 3.406-.378 3.476-.753 10.687-1.265 12.38-5.13.642-1.468.2-4.085.071-5.607-.186-2.192-.692-4.278-1.479-6.325"/>
    </g>
</svg>
