<?xml version="1.0" encoding="utf-8"?>
<!-- Generator: Adobe Illustrator 22.1.0, SVG Export Plug-In . SVG Version: 6.00 Build 0)  -->
<svg version="1.1" id="圖層_1" xmlns="http://www.w3.org/2000/svg" xmlns:xlink="http://www.w3.org/1999/xlink" x="0px" y="0px"
	 viewBox="0 0 240 205" style="enable-background:new 0 0 240 205;" xml:space="preserve">
<style type="text/css">
	.st0{fill:#2D2D2D;}
	.st1{fill:#C84E97;}
	.st2{fill:#764597;}
	.st3{fill:#FEFEFE;}
	.st4{filter:url(#Adobe_OpacityMaskFilter);}
	.st5{fill:#FFFFFF;}
	.st6{mask:url(#b_1_);fill:#C0B1AD;}
	.st7{fill:#E4D2CC;}
	.st8{fill:#C0B1AD;}
</style>
<g>
	<path class="st0" d="M36.8,189.9c10.3,3.7,20.8-2,30.8,4.6c7.7,5.1,14.8,10.3,23.8,9.1c8.8-1.1,16.8,4.2,24.3-1.4
		c13-9.7,25.8-13.9,39.7-5.1c2.9,1.8,18,3.5,24,3.9c2.7,0.2,5.4-0.6,8-1.7c3.1-1.4,6.2-3.1,8.9-5.5c2.6-2.3,4.9-5.2,7.1-8.2
		c7.1-9.9,16.5-16.6,23.2-26.8c7-10.6,12.5-24.7,13.3-38.7c0.2-4-0.1-8.2-1.1-12.1c-1.1-4-2.9-7.7-4.6-11.3
		c-9.1-19.4-7.4-43.7-18.2-62.4c-3.7-6.4-8-12.2-12.8-17.2C193.9,7.3,183.3,4.9,171,4c-15.6-1.1-28.6-8.1-43.2-0.6
		c-4.9,2.5-12.6,7.5-17.3,10.7c-2.3,1.6-18.4,4.4-18.4,4.4c-1.2,0.1-12.5-1.1-17.1-2.7c-9.3-3-19.4-0.6-28.9,3.2
		c-11.4,4.6-16.3,16.7-16.9,31.4c-0.3,7.3,0.9,14.8-0.7,22c-2,9.3-7.4,15.2-13.1,20.7c-2.2,2.2-4.5,4.5-6.4,7
		c-3.7,4.7-6.4,10.5-7.7,16.9c-1.5,7.7-1.6,15.5-0.5,22.9C4.3,163.3,19.3,183.5,36.8,189.9L36.8,189.9z"/>
	<path class="st1" d="M102.3,151.4c-0.1-0.2-0.2-0.4-0.4-0.5c0.9-5.7-1.1-13-6.4-15.3c-4.7-2.1-12.8-0.6-15.4,4.3
		c-0.1-0.1-0.2-0.2-0.2-0.3c-2.2-2.2-5.3-3.9-8.5-3.8c-3.1,0-6,3.2-9.1,1.5c-3-1.6-4.5-3.3-8.1-2.6c-2.3,0.5-4.1,2.4-5.4,4.4
		c-5.8-2.6-14.7,0.6-12.2,8.3c1.8,5.5,9.1,1.4,13.3-0.6c0,3.4,0.3,7.1,3.4,9c3.8,2.3,6.6-1.1,8.4-4c1.3-2.1,3.8,1.2,4.6,2.3
		c1.5,1.9,2.9,3.8,5,5.1c4.5,2.7,8.3-0.4,10.9-3.9c3.8,3.7,7.2,7.6,13.2,6.1C99.4,160.3,104.5,156,102.3,151.4 M190,34.5
		c-0.1-0.1-0.3-0.1-0.5-0.1c-2.4-3.6-7.2-6.5-11.4-5.1c-3.7,1.3-7.3,6.2-6.3,10.2c-0.1,0-0.2-0.1-0.3-0.1c-2.4-0.1-4.9,0.6-6.6,2.3
		c-1.7,1.6-1.6,4.8-4.2,5.5c-2.5,0.6-4.2,0.5-5.8,2.8c-1.1,1.5-1,3.4-0.7,5.2c-4.5,1.5-7.7,7.9-2.5,10.8c3.8,2.1,5.7-3.9,7-7.2
		c1.7,1.9,3.8,3.8,6.4,3.2c3.3-0.7,3.1-4,2.5-6.5c-0.4-1.8,2.7-1.3,3.7-1.1c1.8,0.3,3.5,0.6,5.3,0.2c3.9-0.8,4.4-4.5,4-7.7
		c4,0.1,7.8,0.5,10.4-3.4C193,40.9,193.6,36,190,34.5"/>
	<path class="st2" d="M48.8,104c1.8-0.1,3.8,0.2,5.4,0.8c1.7,0.6,2.5,1.3,4.5,0.6c1.8-0.7,3.4-3.7,5.1-2.5c1.3,1,1.3,3.6,2,5.1
		c0.7,1.5,2.2,1.8,3.6,1.6c2.2-0.3,4.4-2,6.2-3.5c1-0.8,1.3-1.2,2.2-0.3c1.1,1.2,1.9,3,2.5,4.6c0.7,2,1.6,3.8,3.6,4.3
		c1.7,0.5,1.5,5.3-0.6,6c-2.9,0.9-6.4-1.6-8.4-3.4c-0.5-0.5-1.2-0.4-1.7,0c-0.3,0-0.6,0.1-1,0.4c-2.3,1.9-3.6,3.1-5.5,1.2
		c-1.6-1.6-3.1-3-5.3-3.6c-2.3-0.6-5.8-0.5-6.2-3.8c-0.3-2.2-1.7-3.6-3.5-4.2c-1.8-0.6-3.7,0.4-4.6-2.2
		C46.8,103.9,48,104.1,48.8,104 M44.9,108.5c1.5,3.5,6.8,0.6,7.4,5c0.3,2.6,2.7,4.1,4.8,4.6c1.5,0.4,3,0.5,4.5,1.2
		c1.4,0.6,2.5,2.1,3.6,3.1c2.5,2.3,5.4,0.6,8.1-1.7c2.6,2.1,5.9,3.9,9.4,3.5c4.3-0.4,6.8-7.8,4.8-11.2c-0.5-0.8-1-1.3-1.9-1.6
		c-1.6-0.5-2.1-1.9-2.7-3.6c-0.9-2.5-2.5-5.8-5.1-6.3c-1.7-0.3-3.7,1.9-5.2,3c-1.2,0.9-3.7,2.5-4.3,0.7c-0.4-1.2-0.6-2.4-1.1-3.5
		c-0.8-2-2.9-3.2-4.9-2.7c-2.3,0.6-3.7,4.2-6,2.7c-2.6-1.6-8.7-2.5-11.4,0.5C43.3,104.2,44.2,106.9,44.9,108.5 M164.8,67
		c1.8-0.1,3.8,0.2,5.4,0.8c1.7,0.6,2.5,1.3,4.5,0.6c1.8-0.7,3.4-3.7,5.1-2.5c1.3,1,1.3,3.6,2,5.1c0.7,1.5,2.2,1.8,3.6,1.6
		c2.1-0.3,4.4-2,6.2-3.5c1-0.8,1.3-1.2,2.2-0.3c1.1,1.2,1.9,3,2.5,4.6c0.7,2,1.6,3.8,3.6,4.3c1.7,0.5,1.5,5.3-0.6,6
		c-2.9,0.9-6.4-1.6-8.4-3.4c-0.5-0.5-1.2-0.4-1.7,0c-0.3,0-0.6,0.1-1,0.4c-2.3,1.9-3.6,3.1-5.5,1.2c-1.6-1.6-3.1-3-5.3-3.6
		c-2.3-0.6-5.8-0.5-6.2-3.8c-0.3-2.2-1.7-3.6-3.5-4.2c-1.8-0.6-3.7,0.4-4.6-2.2C162.8,66.9,164,67.1,164.8,67 M160.9,71.5
		c1.5,3.5,6.8,0.6,7.4,5c0.3,2.6,2.7,4.1,4.8,4.6c1.5,0.4,3.1,0.5,4.5,1.2c1.4,0.6,2.5,2.1,3.6,3.1c2.5,2.3,5.4,0.6,8.1-1.7
		c2.6,2.1,5.9,3.9,9.4,3.5c4.3-0.4,6.8-7.8,4.8-11.2c-0.5-0.8-1-1.3-1.9-1.6c-1.6-0.5-2.1-1.9-2.7-3.6c-0.9-2.5-2.5-5.8-5.1-6.3
		c-1.7-0.3-3.7,1.9-5.2,3c-1.2,0.9-3.7,2.5-4.3,0.7c-0.4-1.2-0.6-2.4-1.1-3.5c-0.8-2-2.9-3.2-4.9-2.7c-2.3,0.6-3.7,4.2-6,2.7
		c-2.6-1.6-8.7-2.5-11.4,0.5C159.3,67.2,160.2,69.9,160.9,71.5"/>
	<path class="st1" d="M62.3,72.9c-0.5-0.1-1,0.1-1.4,0.4c-2.9,0.8-4.7,3.2-5,6.2c-0.3,2.8,1.1,6,3.7,7.3c3.9,2,8.3-0.8,9.7-4.6
		C70.8,77.6,66.6,73.5,62.3,72.9"/>
	<path class="st3" d="M63,161.6c-0.3,0-0.6,0-0.8,0.2c-1.7,0.4-2.7,1.8-2.9,3.6c-0.2,1.6,0.6,3.5,2.1,4.2c2.2,1.1,4.8-0.4,5.6-2.6
		C67.9,164.3,65.5,161.9,63,161.6"/>
	<path class="st2" d="M215.6,100c-0.4-0.1-0.8,0-1,0.3c-2.1,0.5-3.4,2.3-3.6,4.4c-0.2,2,0.8,4.3,2.6,5.3c2.8,1.4,6-0.5,6.9-3.3
		C221.8,103.4,218.7,100.5,215.6,100"/>
	<g transform="translate(78 16.36)">
		<defs>
			<filter id="Adobe_OpacityMaskFilter" filterUnits="userSpaceOnUse" x="0" y="0.3" width="89" height="168.1">
				<feColorMatrix  type="matrix" values="1 0 0 0 0  0 1 0 0 0  0 0 1 0 0  0 0 0 1 0"/>
			</filter>
		</defs>
		<mask maskUnits="userSpaceOnUse" x="0" y="0.3" width="89" height="168.1" id="b_1_">
			<g class="st4">
				<path id="a_1_" class="st5" d="M0,168.4V0.3h89v168.1H0z"/>
			</g>
		</mask>
		<path class="st6" d="M88.4,132.8c-0.1-1-0.2-2.1-0.3-3.1c-1.2-16.8-0.5-34.1-0.5-50.9c0-16.6,0.4-33.5-0.8-50
			c-0.2-3.3,0.7-6.4,0.3-9.8c-0.4-3.5-0.7-7.1-2.1-10.4c-1.9-4.2-5.6-6.4-9.9-7.8c-0.3-0.1-0.6-0.1-0.9,0c-0.1,0-0.1,0-0.2,0
			c-9.5,0-19-0.6-28.5-0.2C36,0.9,26.6,2.2,17,2C12.2,1.9,9,2.4,5.8,6.3C2.1,10.8,2.7,15.5,2.9,21c0.3,7.6-0.4,15.1-0.3,22.7
			c0.1,9.1,0.1,18.2-0.1,27.3c-0.3,11.8-0.9,23.5-0.9,35.3c0,2.9-0.2,5.8-0.1,8.7c0.1,2.8,0,5.4,0.1,8.1c0.5,13.1-5.6,30.1,3.2,41.6
			c3.1,4,7.8,3,12.3,3.4c8.3,0.8,16.6-0.7,24.8-1.2c7.2-0.4,14.4-1,21.6-1.1c3.2,0,6.5-0.1,9.7,0.3c4.2,0.6,8.3,2.4,11.6-1.3
			c2.5-2.9,3.2-6.9,3.7-10.6C89.3,146.9,89.1,139.9,88.4,132.8"/>
	</g>
	<path class="st3" d="M161.4,43.2c0-0.1,0-0.3,0-0.4c0.1-1-0.7-2.2-2-1.8c-1,0.3-2,0.5-2.9,0.7c-0.2,0-0.4-0.1-0.6,0
		c-7.3,1-14.7-0.9-21.9,0.2c-5,0-10-0.2-14.9-0.2c-10.5-0.1-21.2-2.3-31.7,0.1c-0.2,0-0.4,0.1-0.5,0.2c-0.1,0-0.1,0-0.2-0.1
		c-0.6-0.3-1.3-0.2-1.7,0.2c-0.7,0.1-1.4,0.6-1.4,1.6c0,24,0.5,48,0.9,71.9c-0.3,4.4-0.8,8.8-0.9,13.3c-0.4,10.3-1.2,18.1,0.7,28.3
		c1,4.7,12.4,4.5,15.6,4.6c6.7,0.2,13.4-0.5,20-1c8.3-0.6,16.6,1.8,24.8,1.3c3.8-0.3,15.2,1,16.5-4c3.5-13.4,0.2-29.1-0.1-42.9
		c-0.3-15.3-0.1-30.7,0.1-46C161.3,60.4,161.4,51.8,161.4,43.2 M130.3,30.4c-4-2.7-10.4-2.2-15.3-1.2c-0.5-0.1-0.9,0-1.2,0.3
		c-0.1,0-0.3,0.1-0.4,0.1c-1.1,0.3-1.7,2-0.7,2.7c2.1,1.7,4.7,1.7,7.3,1.5c3.4,0.5,6.9,0.5,10-0.4C131.3,32.9,131.4,31.1,130.3,30.4
		 M126.1,167c-0.1-0.7-0.6-1.5-1.6-1.5c-4.7-0.3-9.7,4-8.1,8.9c1.9,5.8,10.5,4.4,12.5-0.4C130.3,170.9,128.5,168.1,126.1,167"/>
	<path class="st7" d="M157,67.1c-0.1-0.9-0.7-1.7-1.6-1.7c-10.8-0.3-21.7-0.1-32.5-0.6c-9.9-0.5-20.2,1-30-0.7
		c-0.4-0.1-0.9,0-1.3,0.3c-0.9-0.6-2.2-0.4-2.4,0.9c-0.9,4.9-0.2,9.7-0.1,14.7c-0.2,1-0.3,1.9-0.3,2.9c0,0.6,0.3,1.2,0.8,1.5
		c2.5,1.5,5.3,1.7,8.1,1.8c4.2,0.2,8.3,0.5,12.4,0.7c9.5,0.5,18.9-0.2,28.3-1c3.8-0.3,7.4,0.2,11.2,0.4c2.5,0.1,4.7-0.6,6-2.9
		C158,78.7,157.3,71.9,157,67.1"/>
	<path class="st3" d="M122.5,68.9c-4.7-0.1-9.2,0.1-13.9-0.5c-4.5-0.5-8.9-0.5-13.4,0.2c-2.1,0.3-1.2,3.5,0.9,3.2
		c4.8-0.8,9.6-0.5,14.4,0.2c4.1,0.6,8,0.1,12.1,0.2C124.7,72.2,124.7,69,122.5,68.9 M122.1,74c-9-0.1-17.9-2.6-26.8-0.8
		c-2.1,0.4-1.2,3.6,0.9,3.2c8.6-1.8,17.3,0.8,26,0.9C124.2,77.3,124.2,74,122.1,74 M116.8,78.1H95.5c-2.1,0-2.1,3.3,0,3.3h21.3
		C118.9,81.4,118.9,78.1,116.8,78.1"/>
	<path class="st8" d="M155.3,68.8c-0.1-0.7-0.9-1.3-1.6-1.2c-3.4,0.3-6.8-0.1-10.2,0c-2.3,0-4.5,0.6-6.7,0.4
		c-1.3-0.1-3.7-1.2-3.7,1.1c0,4.1-0.1,8.2,0.6,12.2c0.3,1.7,2.6,1.3,3.8,1.4c1.2,0.2,2.2,0.4,3.4,0.4c3.6,0,10.7,1.1,13.2-2.3
		c0.9-1.3,1.1-4,1.3-5.5C155.6,73.1,155.6,71,155.3,68.8"/>
	<path class="st7" d="M95.9,45.5c-0.5-0.1-1,0-1.3,0.4c-2.8,0.7-4.6,3.2-5,6.1c-0.3,2.8,1.1,6,3.6,7.3c3.8,2,8.2-0.8,9.6-4.5
		C104.4,50.2,100.1,46.2,95.9,45.5 M113.8,45.5c-0.5-0.1-1,0-1.3,0.4c-2.8,0.7-4.6,3.2-5,6.1c-0.3,2.8,1.1,6,3.6,7.3
		c3.8,2,8.2-0.8,9.6-4.5C122.2,50.2,118,46.2,113.8,45.5 M132.9,45.5c-0.5-0.1-1,0-1.4,0.4c-2.8,0.7-4.6,3.2-5,6.1
		c-0.3,2.8,1.1,6,3.6,7.3c3.9,2,8.2-0.8,9.6-4.5C141.4,50.2,137.1,46.2,132.9,45.5 M150.7,45.5c-0.5-0.1-1,0-1.4,0.4
		c-2.8,0.7-4.6,3.2-5,6.1c-0.3,2.8,1.1,6,3.6,7.3c3.8,2,8.2-0.8,9.6-4.5C159.2,50.2,155,46.2,150.7,45.5"/>
	<g>
		<path class="st3" d="M167.5,95.9"/>
		<path class="st3" d="M121.2,99.3c-4.6,0.9-9,2.1-13.7,2.6c-4.5,0.4-8.8,1.4-13,3.1c-2,0.8-0.4,3.7,1.5,2.9c4.5-1.8,9.3-2.6,14.1-3
			c4.1-0.3,7.8-1.6,11.8-2.4C124,102.1,123.3,98.9,121.2,99.3 M121.8,104.4c-8.8,1.8-18,1.3-26.3,5.1c-1.9,0.9-0.4,3.8,1.5,2.9
			c8-3.6,17-3,25.5-4.8C124.6,107.1,123.9,103.9,121.8,104.4 M117.6,109.5l-20.8,4.6c-2.1,0.5-1.3,3.6,0.7,3.2l20.8-4.6
			C120.4,112.2,119.7,109,117.6,109.5"/>
	</g>
</g>
</svg>
