<?xml version="1.0" encoding="utf-8"?>
<!-- Generator: Adobe Illustrator 22.1.0, SVG Export Plug-In . SVG Version: 6.00 Build 0)  -->
<svg version="1.1" id="圖層_1" xmlns="http://www.w3.org/2000/svg" xmlns:xlink="http://www.w3.org/1999/xlink" x="0px" y="0px"
	 viewBox="0 0 240 205" style="enable-background:new 0 0 240 205;" xml:space="preserve">
<style type="text/css">
	.st0{fill:#E95036;}
	.st1{fill:#E95035;}
	.st2{fill:#EB675F;}
</style>
<g>
	<path class="st0" d="M36.8,189.9c10.3,3.7,20.8-2,30.8,4.6c7.7,5.1,14.8,10.3,23.8,9.1c8.8-1.1,16.8,4.2,24.3-1.4
		c13-9.7,25.8-13.9,39.7-5.1c2.9,1.8,18,3.5,24,3.9c2.7,0.2,5.4-0.6,8-1.7c3.1-1.4,6.2-3.1,8.9-5.5c2.6-2.3,4.9-5.2,7.1-8.2
		c7.1-9.9,16.5-16.6,23.2-26.8c7-10.6,12.5-24.7,13.3-38.7c0.2-4-0.1-8.2-1.1-12.1c-1.1-4-2.9-7.7-4.6-11.3
		c-9.1-19.4-7.4-43.7-18.2-62.4c-3.7-6.4-8-12.2-12.8-17.2C193.9,7.3,183.3,4.9,171,4c-15.6-1.1-28.6-8.1-43.2-0.6
		c-4.9,2.5-12.6,7.5-17.3,10.7c-2.3,1.6-18.4,4.4-18.4,4.4c-1.2,0.1-12.5-1.1-17.1-2.7c-9.3-3-19.4-0.6-28.9,3.2
		c-11.4,4.6-16.3,16.7-16.9,31.4c-0.3,7.3,0.9,14.8-0.7,22c-2,9.3-7.4,15.2-13.1,20.7c-2.2,2.2-4.5,4.5-6.4,7
		c-3.7,4.7-6.4,10.5-7.7,16.9c-1.5,7.7-1.6,15.5-0.5,22.9C4.3,163.3,19.3,183.5,36.8,189.9L36.8,189.9z"/>
	<g>
		<path class="st1" d="M57.9,135.9c0,13.6-2.6,13.8-5.9,13.8s-5.9-0.2-5.9-13.8c0-13.6,2.6-24.7,5.9-24.7S57.9,122.3,57.9,135.9"/>
		<path class="st1" d="M44,109.1c0.3-0.7,0-4,0-4c2.5-4.9,6.6-4,6.9-4c0.2-0.1,3.7-2.7,7.9,0.8c0,0,1,3.2,1.6,3.7
			c0,0,1.3,6.4-6.6,8.3l0,0l-0.2,0l-0.2,0l0,0C45.3,115.5,44,109.1,44,109.1"/>
		<path class="st2" d="M48.4,111"/>
	</g>
</g>
</svg>
